<?xml version="1.0" encoding="UTF-8"?>
<svg width="1200pt" height="1200pt" version="1.1" viewBox="0 0 1200 1200" xmlns="http://www.w3.org/2000/svg">
 <path d="m1129.3 474.12c0.019532-16.535-7.7109-32.125-20.879-42.121l-466.8-350.04c-9.1055-6.7227-20.125-10.352-31.441-10.352-11.316 0-22.336 3.6289-31.438 10.352l-467.76 350.04c-13.23 9.9727-21.047 25.551-21.121 42.121v225.48c-0.03125 17.383 8.5547 33.652 22.922 43.438l468 317.64c8.6953 5.9453 18.984 9.125 29.52 9.125 10.535 0 20.824-3.1797 29.52-9.125l466.8-317.52c14.32-9.8281 22.891-26.07 22.918-43.441zm-49.32-3.4805c1.1367 0.79297 1.8125 2.0938 1.8008 3.4805v225.6-0.003906c0.019531 1.4844-0.69922 2.8789-1.9219 3.7227l-7.9219 5.3984h-135.36l-299.16-570zm-469.8 374.76-315.12-133.56 310.32-589.8 2.1602-1.6797c0.75781-0.57812 1.6914-0.875 2.6406-0.83984 0.94141 0.023438 1.8594 0.3125 2.6406 0.83984l2.1602 1.6797 309.6 589.8zm-470.52-374.76 443.28-331.92-300 570.12h-135l-7.9219-5.3984c-1.2031-0.85547-1.918-2.2422-1.918-3.7227v-225.6 0.003906c-0.015625-1.332 0.55469-2.6055 1.5586-3.4805zm25.922 250.2h120l318.6 135v162.84zm450.6 297.84v-162.84l318-135h120z"/>
</svg>
