<?xml version="1.0" encoding="UTF-8"?>
<svg width="1200pt" height="1200pt" version="1.1" viewBox="0 0 1200 1200" xmlns="http://www.w3.org/2000/svg">
 <path d="m1061 306.96-430.32-248.4c-19.023-10.926-42.414-10.926-61.438 0l-430.32 248.4c-19.016 10.918-30.801 31.113-30.961 53.039v496.8c0.042969 21.895 11.688 42.125 30.602 53.16l430.68 248.64c9.3594 5.3281 19.945 8.1406 30.719 8.1602 10.789-0.003907 21.391-2.8633 30.719-8.2812l430.32-248.4v-0.003906c19.051-10.941 30.844-31.188 30.961-53.156v-496.92c-0.16016-21.926-11.945-42.121-30.961-53.039zm-468-206.88v-0.003906c4.1602-2.3984 9.2812-2.3984 13.441 0l430.56 248.52-437.04 252.96-437.52-252.6zm-430.32 768v-0.003906c-4.2227-2.4922-6.7539-7.0938-6.5977-12v-496.08-0.71875l437.88 252.72v505.2h-0.71875zm880.68-12v-0.003906c0.15625 4.9062-2.3711 9.5078-6.5977 12l-430.08 248.88h-0.71875v-504.96l438-252v0.71875z"/>
</svg>
