<?xml version="1.0" encoding="UTF-8"?>
<svg width="1200pt" height="1200pt" version="1.1" viewBox="0 0 1200 1200" xmlns="http://www.w3.org/2000/svg">
 <path d="m1034 344.52-372-214.68c-16.609-9.5312-37.031-9.5312-53.641 0l-372 214.68c-16.578 9.6016-26.812 27.281-26.879 46.441v429.36c0.007813 9.418 2.4961 18.672 7.2148 26.824 4.7188 8.1484 11.504 14.918 19.664 19.617l372 214.68c8.125 4.7266 17.359 7.2109 26.762 7.1992 9.4375 0 18.707-2.4844 26.879-7.1992l372-214.68c16.598-9.5859 26.84-27.277 26.883-46.441v-429.36c-0.066406-19.16-10.305-36.84-26.883-46.441zm-774.6 479.4c-0.95312-0.96484-1.5117-2.25-1.5625-3.6016v-12l370.2-634.32 4.5586-2.6406h0.003906c0.83984-0.47656 1.793-0.72656 2.7578-0.71875 1.0039 0.007813 1.9922 0.25391 2.8828 0.71875l4.5586 2.6406 370.08 634.2v12c-0.042969 1.332-0.55078 2.6094-1.4414 3.6016zm753.48-432.96v393.48l-349.2-598.32 346.32 199.92c1.7812 1 2.8828 2.8789 2.8828 4.9219zm-752.16-4.9219 346.32-199.92-349.2 598.32v-393.48c0-2.043 1.1016-3.9219 2.8828-4.9219zm377.52 653.88c-1.7578 0.95703-3.8828 0.95703-5.6406 0l-353.52-204h712.56z"/>
</svg>
