<?xml version="1.0" encoding="UTF-8"?>
<svg width="1200pt" height="1200pt" version="1.1" viewBox="0 0 1200 1200" xmlns="http://www.w3.org/2000/svg">
 <path d="m1055.2 452.28-153.24-210.84c-6.7578-9.3203-16.293-16.25-27.242-19.801l-247.92-80.52c-10.914-3.5977-22.691-3.5977-33.602 0l-247.92 80.52c-10.945 3.5508-20.484 10.48-27.238 19.801l-153.24 210.84c-6.7656 9.3047-10.383 20.531-10.32 32.039v260.64c-0.078125 11.508 3.5391 22.738 10.32 32.039l153.24 210.96c6.707 9.418 16.254 16.441 27.238 20.039l247.92 80.641c10.922 3.5234 22.676 3.5234 33.602 0l247.92-80.641c10.938-3.5039 20.48-10.395 27.242-19.68l153.24-211.32c6.7812-9.3008 10.398-20.531 10.32-32.039v-260.64c0.0625-11.508-3.5547-22.734-10.32-32.039zm-195.24-184.92c1.2656 0.38672 2.3633 1.1914 3.1172 2.2812l150.12 206.64-133.8 38.277-267.36-194.16 3.1211-132zm-90 567.6h-327.6l-101.28-312 265.08-192 265.08 192zm-413.04-565.32c0.75391-1.0898 1.8555-1.8945 3.1211-2.2812l243.36-79.078-3.1211 132-267.36 194.16-126.36-37.801zm-152.88 479.16c-0.82031-1.1094-1.2461-2.4609-1.1992-3.8398v-257.04l126.84 38.039 102.36 314.04-77.641 115.44zm408 293.76c-1.3164 0.47656-2.7617 0.47656-4.0781 0l-244.8-79.559 78-116.04h330.12l84 116.4zm404.28-293.76-150.72 207.48-84-116.4 102-313.92 134.52-38.398v257.4c-0.12109 1.4531-0.75781 2.8164-1.7969 3.8398z"/>
</svg>
