<?xml version="1.0" encoding="UTF-8"?>
<svg width="1200pt" height="1200pt" version="1.1" viewBox="0 0 1200 1200" xmlns="http://www.w3.org/2000/svg">
 <path d="m1121.4 930.6-476.64-825.48c-7.2695-12.469-20.613-20.133-35.043-20.133s-27.77 7.6641-35.039 20.133l-476.52 825.48c-7.1758 12.527-7.1523 27.926 0.066406 40.43 7.2148 12.508 20.535 20.234 34.973 20.289h953.16c7.1172 0.046876 14.117-1.8086 20.277-5.375 6.1602-3.5664 11.258-8.7109 14.762-14.906 7.1992-12.52 7.1992-27.922 0-40.438zm-52.438 5.3984-453.24-252v-533.16zm-459.24-241.44 447.84 248.76h-889.56zm-6-543.72v533.16l-456 257.28z"/>
</svg>
