<?xml version="1.0" encoding="UTF-8"?>
<svg width="1200pt" height="1200pt" version="1.1" viewBox="0 0 1200 1200" xmlns="http://www.w3.org/2000/svg">
 <path d="m990.48 361.68-357.24-205.68c-16.719-9.5977-37.277-9.5977-54 0l-357.24 205.68c-16.57 9.5664-26.844 27.188-27 46.32v412.92c0.011719 19.297 10.301 37.129 27 46.797l357.24 206.16c16.723 9.5977 37.281 9.5977 54 0l357.24-206.16c16.645-9.7227 26.914-27.52 27-46.797v-412.92c-0.20703-19.121-10.465-36.719-27-46.32zm-24 464.4-1.3203 0.71875-112.56 0.003906 116.88-366.84v360.96c-0.011719 2.1289-1.1562 4.0938-3 5.1562zm0-422.88c1.8477 1.1211 2.9805 3.1211 3 5.2812v12l-126.72 397.56-226.56-392.52 343.8-25.918zm-360.24 28.801 228 394.56h-456zm-236.64 386.04-126.6-398.04v-12c0.019531-2.1602 1.1523-4.1562 3-5.2812l6.2383-3.6016 344.04 25.922zm-9.6016 8.7617h-112.8l-1.1992-0.71875v-0.003906c-1.8438-1.0625-2.9883-3.0273-3-5.1562v-360.96zm-2.2812 12h8.0391l159.96 148.8-257.64-148.8zm25.68 0h445.8l-188.88 175.68-31.082 17.52c-1.8555 1.0703-4.1406 1.0703-6 0l-31.078-17.879zm463.44 0h97.559l-257.64 148.8zm95.039-449.76-329.88 24.723v-215.04zm-341.88-190.32v215.04l-329.28-24.723z"/>
</svg>
